<mxfile host="65bd71144e">
    <diagram id="zeOAFFJSz1LdIO6e17N_" name="第 1 页">
        <mxGraphModel dx="1253" dy="1099" grid="1" gridSize="10" guides="1" tooltips="1" connect="1" arrows="1" fold="1" page="1" pageScale="1" pageWidth="827" pageHeight="1169" math="0" shadow="0">
            <root>
                <mxCell id="0"/>
                <mxCell id="1" parent="0"/>
                <mxCell id="5" style="edgeStyle=none;html=1;" parent="1" source="2" target="4" edge="1">
                    <mxGeometry relative="1" as="geometry"/>
                </mxCell>
                <mxCell id="2" value="开始" style="rounded=1;whiteSpace=wrap;html=1;" parent="1" vertex="1">
                    <mxGeometry x="289.5" y="20" width="120" height="60" as="geometry"/>
                </mxCell>
                <mxCell id="3" value="结束" style="rounded=1;whiteSpace=wrap;html=1;" parent="1" vertex="1">
                    <mxGeometry x="289.5" y="1030" width="120" height="60" as="geometry"/>
                </mxCell>
                <mxCell id="10" style="edgeStyle=none;html=1;" parent="1" source="4" target="7" edge="1">
                    <mxGeometry relative="1" as="geometry"/>
                </mxCell>
                <mxCell id="4" value="输入5个浮点数储存到num[5]中" style="shape=parallelogram;perimeter=parallelogramPerimeter;whiteSpace=wrap;html=1;fixedSize=1;" parent="1" vertex="1">
                    <mxGeometry x="237" y="110" width="225" height="60" as="geometry"/>
                </mxCell>
                <mxCell id="6" value="tag=0 ?" style="rhombus;whiteSpace=wrap;html=1;" parent="1" vertex="1">
                    <mxGeometry x="254.5" y="290" width="190" height="80" as="geometry"/>
                </mxCell>
                <mxCell id="11" style="edgeStyle=none;html=1;" parent="1" source="7" target="6" edge="1">
                    <mxGeometry relative="1" as="geometry"/>
                </mxCell>
                <mxCell id="7" value="tag = 1" style="rounded=0;whiteSpace=wrap;html=1;" parent="1" vertex="1">
                    <mxGeometry x="289.5" y="190" width="120" height="60" as="geometry"/>
                </mxCell>
                <mxCell id="16" value="i&amp;lt;4?" style="rhombus;whiteSpace=wrap;html=1;" parent="1" vertex="1">
                    <mxGeometry x="254.5" y="510" width="190" height="80" as="geometry"/>
                </mxCell>
                <mxCell id="20" value="" style="endArrow=classic;html=1;exitX=0.5;exitY=1;exitDx=0;exitDy=0;entryX=0.5;entryY=0;entryDx=0;entryDy=0;" parent="1" source="6" target="22" edge="1">
                    <mxGeometry relative="1" as="geometry">
                        <mxPoint x="389.5" y="500" as="sourcePoint"/>
                        <mxPoint x="489.5" y="500" as="targetPoint"/>
                    </mxGeometry>
                </mxCell>
                <mxCell id="21" value="N" style="edgeLabel;resizable=0;html=1;align=center;verticalAlign=middle;fontSize=24;" parent="20" connectable="0" vertex="1">
                    <mxGeometry relative="1" as="geometry">
                        <mxPoint x="-20" y="-5" as="offset"/>
                    </mxGeometry>
                </mxCell>
                <mxCell id="23" style="edgeStyle=none;html=1;fontSize=12;" parent="1" source="22" target="16" edge="1">
                    <mxGeometry relative="1" as="geometry"/>
                </mxCell>
                <mxCell id="22" value="tag=0&lt;br&gt;i=0" style="rounded=0;whiteSpace=wrap;html=1;fontSize=12;" parent="1" vertex="1">
                    <mxGeometry x="289.5" y="410" width="120" height="60" as="geometry"/>
                </mxCell>
                <mxCell id="24" value="num[i]&amp;lt;num[i+1]?" style="rhombus;whiteSpace=wrap;html=1;fontSize=12;" parent="1" vertex="1">
                    <mxGeometry x="254.5" y="620" width="190" height="80" as="geometry"/>
                </mxCell>
                <mxCell id="47" style="edgeStyle=none;html=1;fontSize=12;exitX=0.5;exitY=1;exitDx=0;exitDy=0;" parent="1" source="27" edge="1">
                    <mxGeometry relative="1" as="geometry">
                        <mxPoint x="200" y="940" as="sourcePoint"/>
                        <mxPoint x="350" y="270" as="targetPoint"/>
                        <Array as="points">
                            <mxPoint x="350" y="870"/>
                            <mxPoint x="220" y="870"/>
                            <mxPoint x="220" y="270"/>
                        </Array>
                    </mxGeometry>
                </mxCell>
                <mxCell id="27" value="交换num[i]和num[i+1]的值&lt;br&gt;i自增1&lt;br&gt;tag=1" style="rounded=0;whiteSpace=wrap;html=1;fontSize=12;" parent="1" vertex="1">
                    <mxGeometry x="259.5" y="750" width="180" height="70" as="geometry"/>
                </mxCell>
                <mxCell id="37" value="" style="endArrow=classic;html=1;entryX=0.5;entryY=0;entryDx=0;entryDy=0;exitX=0.5;exitY=1;exitDx=0;exitDy=0;" parent="1" source="16" target="24" edge="1">
                    <mxGeometry relative="1" as="geometry">
                        <mxPoint x="379.5" y="600" as="sourcePoint"/>
                        <mxPoint x="359.5" y="420" as="targetPoint"/>
                    </mxGeometry>
                </mxCell>
                <mxCell id="38" value="Y" style="edgeLabel;resizable=0;html=1;align=center;verticalAlign=middle;fontSize=24;" parent="37" connectable="0" vertex="1">
                    <mxGeometry relative="1" as="geometry">
                        <mxPoint x="-20" y="-5" as="offset"/>
                    </mxGeometry>
                </mxCell>
                <mxCell id="39" value="" style="endArrow=classic;html=1;exitX=0.5;exitY=1;exitDx=0;exitDy=0;entryX=0.5;entryY=0;entryDx=0;entryDy=0;" parent="1" source="24" target="27" edge="1">
                    <mxGeometry relative="1" as="geometry">
                        <mxPoint x="369.5" y="390" as="sourcePoint"/>
                        <mxPoint x="369.5" y="430" as="targetPoint"/>
                    </mxGeometry>
                </mxCell>
                <mxCell id="40" value="Y" style="edgeLabel;resizable=0;html=1;align=center;verticalAlign=middle;fontSize=24;" parent="39" connectable="0" vertex="1">
                    <mxGeometry relative="1" as="geometry">
                        <mxPoint x="-20" y="-5" as="offset"/>
                    </mxGeometry>
                </mxCell>
                <mxCell id="41" value="" style="endArrow=classic;html=1;exitX=1;exitY=0.5;exitDx=0;exitDy=0;entryX=0.5;entryY=0;entryDx=0;entryDy=0;" parent="1" source="6" target="46" edge="1">
                    <mxGeometry relative="1" as="geometry">
                        <mxPoint x="519.5" y="350" as="sourcePoint"/>
                        <mxPoint x="349.5" y="980" as="targetPoint"/>
                        <Array as="points">
                            <mxPoint x="550" y="330"/>
                            <mxPoint x="550" y="900"/>
                            <mxPoint x="350" y="900"/>
                        </Array>
                    </mxGeometry>
                </mxCell>
                <mxCell id="42" value="Y" style="edgeLabel;resizable=0;html=1;align=center;verticalAlign=middle;fontSize=24;" parent="41" connectable="0" vertex="1">
                    <mxGeometry relative="1" as="geometry">
                        <mxPoint x="-105" y="-387" as="offset"/>
                    </mxGeometry>
                </mxCell>
                <mxCell id="45" style="edgeStyle=none;html=1;fontSize=12;exitX=0.5;exitY=1;exitDx=0;exitDy=0;entryX=0.5;entryY=0;entryDx=0;entryDy=0;" parent="1" source="46" target="3" edge="1">
                    <mxGeometry relative="1" as="geometry">
                        <mxPoint x="349.5" y="980" as="sourcePoint"/>
                        <mxPoint x="350" y="1020" as="targetPoint"/>
                    </mxGeometry>
                </mxCell>
                <mxCell id="46" value="逐个输出sum[5]" style="shape=parallelogram;perimeter=parallelogramPerimeter;whiteSpace=wrap;html=1;fixedSize=1;fontSize=12;" parent="1" vertex="1">
                    <mxGeometry x="289.5" y="950" width="120" height="60" as="geometry"/>
                </mxCell>
                <mxCell id="49" value="" style="endArrow=classic;html=1;exitX=1;exitY=0.5;exitDx=0;exitDy=0;" parent="1" source="24" edge="1">
                    <mxGeometry relative="1" as="geometry">
                        <mxPoint x="510" y="800" as="sourcePoint"/>
                        <mxPoint x="350" y="840" as="targetPoint"/>
                        <Array as="points">
                            <mxPoint x="490" y="660"/>
                            <mxPoint x="490" y="840"/>
                        </Array>
                    </mxGeometry>
                </mxCell>
                <mxCell id="50" value="N" style="edgeLabel;resizable=0;html=1;align=center;verticalAlign=middle;fontSize=24;" parent="49" connectable="0" vertex="1">
                    <mxGeometry relative="1" as="geometry">
                        <mxPoint x="-40" y="-157" as="offset"/>
                    </mxGeometry>
                </mxCell>
                <mxCell id="53" value="" style="endArrow=classic;html=1;exitX=1;exitY=0.5;exitDx=0;exitDy=0;" parent="1" source="16" edge="1">
                    <mxGeometry relative="1" as="geometry">
                        <mxPoint x="410" y="510" as="sourcePoint"/>
                        <mxPoint x="350" y="850" as="targetPoint"/>
                        <Array as="points">
                            <mxPoint x="520" y="550"/>
                            <mxPoint x="520" y="850"/>
                        </Array>
                    </mxGeometry>
                </mxCell>
                <mxCell id="54" value="N" style="edgeLabel;resizable=0;html=1;align=center;verticalAlign=middle;fontSize=24;" parent="53" connectable="0" vertex="1">
                    <mxGeometry relative="1" as="geometry">
                        <mxPoint x="-70" y="-217" as="offset"/>
                    </mxGeometry>
                </mxCell>
            </root>
        </mxGraphModel>
    </diagram>
</mxfile>